<?xml version="1.0" encoding="UTF-8"?>
<svg width="171px" height="50px" viewBox="0 0 171 50" version="1.1" xmlns="http://www.w3.org/2000/svg" xmlns:xlink="http://www.w3.org/1999/xlink">
    <!-- Generator: Sketch 55.2 (78181) - https://sketchapp.com -->
    <title>Artboard</title>
    <desc>Created with Sketch.</desc>
    <g id="Artboard" stroke="none" stroke-width="1" fill="none" fill-rule="evenodd">
        <g id="Shout_logo_V2" transform="translate(5.000000, 6.000000)" fill-rule="nonzero">
            <path d="M83.57,6.83 C90.16,6.83 95.64,8.97 97.57,15.17 C96.83,7.39 90.57,1.32 83.01,1.32 C74.94,1.32 67.01,8.23 68.01,16.72 C68.14,17.79 68.45,19.17 68.57,20.33 C70.1,12.5 75.37,6.83 83.57,6.83 Z" id="Path" fill="#F0B645"></path>
            <path d="M82.7,29.75 C76.11,29.75 70.64,27.93 68.7,21.75 C69.44,29.53 75.7,35.61 83.25,35.61 C91.33,35.61 99.25,28.69 98.25,20.2 C98.12,19.13 97.81,17.75 97.69,16.59 C96.14,24.4 90.87,29.75 82.7,29.75 Z" id="Path" fill="#F0B645"></path>
            <path d="M26.79,20.44 C26.2100962,19.638465 25.5043071,18.9360529 24.7,18.36 C23.8098493,17.7210001 22.819695,17.2343714 21.77,16.92 L19.57,16.32 L16.38,15.48 L13.38,14.68 L11.86,14.28 C10.7722428,13.9874984 9.76408949,13.4543732 8.91,12.72 C8.13511257,11.9765137 7.72255618,10.9323444 7.78,9.86 C7.75313367,9.09543246 7.96264989,8.34117408 8.38,7.7 C8.77308698,7.13121449 9.29357555,6.66208992 9.9,6.33 C10.5271294,5.99182598 11.2012228,5.74915233 11.9,5.61 C12.6118641,5.4727134 13.3350225,5.40240633 14.06,5.4 C15.8711981,5.3253517 17.6627264,5.79937474 19.2,6.76 C20.6429426,7.88041152 21.4760762,9.61332947 21.45,11.44 L27.45,11.44 C27.5004926,9.80919524 27.1574884,8.19021557 26.45,6.72 C25.7527877,5.37673749 24.76974,4.20254168 23.57,3.28 C22.321914,2.3326226 20.9075761,1.62714952 19.4,1.2 C16.2573537,0.301594916 12.930625,0.267049447 9.77,1.1 C8.33833743,1.47688757 6.98429641,2.10313155 5.77,2.95 C4.59574812,3.77178441 3.61885418,4.84431832 2.91,6.09 C2.16298122,7.46625164 1.79055557,9.01457681 1.83,10.58 C1.82900461,11.4723022 1.95012838,12.3605433 2.19,13.22 C2.44249959,14.1066647 2.85977618,14.9378254 3.42,15.67 C4.06376599,16.5019495 4.85323615,17.2101008 5.75,17.76 C6.88884515,18.4481905 8.12659714,18.9574564 9.42,19.27 C11.7933333,19.9366667 13.7933333,20.4566667 15.42,20.83 C16.8255352,21.1770577 18.2109539,21.6010292 19.57,22.1 C19.6761203,22.1440228 19.7796241,22.1941053 19.88,22.25 L27.71,22.25 C27.4786553,21.6112494 27.1696718,21.0033578 26.79,20.44 L26.79,20.44 Z" id="Path" stroke="#21380B" fill="#112F39"></path>
            <path d="M22.44,26.32 C22.4416046,26.9723664 22.3123913,27.6184328 22.06,28.22 C21.785311,28.8672046 21.3561123,29.4371804 20.81,29.88 C20.1441776,30.4083555 19.3840319,30.8053959 18.57,31.05 C17.4815755,31.3809777 16.3473322,31.536261 15.21,31.51 C14.0671764,31.5178052 12.9280117,31.3800301 11.82,31.1 C10.8234857,30.8523181 9.88559453,30.4105578 9.06,29.8 C8.25815973,29.205864 7.61574555,28.4225997 7.19,27.52 C6.71383397,26.4655959 6.48467829,25.3163972 6.52,24.16 L0.52,24.16 C0.501130543,26.0602648 0.91131826,27.9402918 1.72,29.66 C2.44069921,31.1494825 3.4904659,32.4557068 4.79,33.48 C6.13510882,34.5010302 7.66733597,35.248458 9.3,35.68 C11.0988502,36.1691383 12.9558677,36.4113579 14.82,36.4 C16.5047926,36.402846 18.1837139,36.2013755 19.82,35.8 C21.3773362,35.4344818 22.8571145,34.7944861 24.19,33.91 C25.4635863,33.0465516 26.5237407,31.9043208 27.29,30.57 C28.1063841,29.0616192 28.5099891,27.3644086 28.46,25.65 C28.4511555,25.0653385 28.3875441,24.482792 28.27,23.91 L21.91,23.91 C22.2954398,24.6527789 22.4782493,25.4840447 22.44,26.32 L22.44,26.32 Z" id="Path" stroke="#4D818E" fill="#4D818E"></path>
            <rect id="Rectangle" stroke="#4D818E" fill="#4D818E" x="33.53" y="23.91" width="6" height="11.68"></rect>
            <polygon id="Path" stroke="#21380B" fill="#112F39" points="39.53 20.13 55.13 20.13 55.13 22.25 61.13 22.25 61.13 1.32 55.13 1.32 55.13 14.95 39.53 14.95 39.53 1.32 33.53 1.32 33.53 22.25 39.53 22.25"></polygon>
            <rect id="Rectangle" stroke="#4D818E" fill="#4D818E" x="55.13" y="23.91" width="6" height="11.68"></rect>
            <path d="M28.06,23.08 C28.0645429,23.040129 28.0645429,22.999871 28.06,22.96 C27.9624199,22.7177565 27.8522702,22.4807678 27.73,22.25 L18.57,22.25 C19.1081677,22.4512406 19.6136311,22.7309303 20.07,23.08 L28.06,23.08 Z" id="Path" stroke="#FFFFFF" stroke-width="1.42" fill="#FFFFFF"></path>
            <path d="M21.2,23.08 L21.56,23.42 C21.6956833,23.5688774 21.8131754,23.7333664 21.91,23.91 L28.25,23.91 C28.19,23.63 28.14,23.36 28.06,23.08 L21.2,23.08 Z" id="Path" stroke="#FFFFFF" stroke-width="1.42" fill="#FFFFFF"></path>
            <rect id="Rectangle" stroke="#FFFFFF" stroke-width="1.42" fill="#FFFFFF" x="33.27" y="23.08" width="6.49" height="1"></rect>
            <rect id="Rectangle" stroke="#FFFFFF" stroke-width="1.42" fill="#FFFFFF" x="33.27" y="22.25" width="6.49" height="1"></rect>
            <rect id="Rectangle" stroke="#FFFFFF" stroke-width="1.42" fill="#FFFFFF" x="54.9" y="22.25" width="6.61" height="1"></rect>
            <rect id="Rectangle" stroke="#FFFFFF" stroke-width="1.42" fill="#FFFFFF" x="54.71" y="23.08" width="6.81" height="1"></rect>
            <rect id="Rectangle" stroke="#4D818E" fill="#4D818E" x="126.55" y="1.32" width="6" height="13.02"></rect>
            <rect id="Rectangle" stroke="#4D818E" fill="#4D818E" x="104.43" y="1.32" width="6" height="13.02"></rect>
            <path d="M126.57,21.28 C126.57,22.44 126.57,23.6 126.41,24.79 C126.302402,25.9113594 125.961797,26.9978878 125.41,27.98 C124.838985,28.9621993 124.008667,29.7683004 123.01,30.31 C120.108292,31.522788 116.841708,31.522788 113.94,30.31 C112.952453,29.7682895 112.132641,28.9657733 111.57,27.99 C111.017931,27.0080052 110.677308,25.9214181 110.57,24.8 C110.454224,23.6336121 110.397485,22.4621171 110.4,21.29 L110.4,15.99 L104.4,15.99 L104.4,23.25 C104.349702,25.2171971 104.689576,27.1748727 105.4,29.01 C106.026823,30.5779739 107.001292,31.9832606 108.25,33.12 C109.536738,34.2508031 111.050667,35.0930114 112.69,35.59 C116.4541,36.6697311 120.4459,36.6697311 124.21,35.59 C125.849333,35.0930114 127.363262,34.2508031 128.65,33.12 C129.926054,31.9844758 130.924948,30.5716563 131.57,28.99 C132.275376,27.1534758 132.615075,25.1968107 132.57,23.23 L132.57,15.99 L126.57,15.99 L126.57,21.28 Z" id="Path" stroke="#21380B" fill="#112F39"></path>
            <polygon id="Path" stroke="#4D818E" fill="#4D818E" points="153.05 6.5 163.95 6.5 163.95 1.32 136.2 1.32 136.2 6.5 147.05 6.5 147.05 14.34 153.05 14.34"></polygon>
            <rect id="Rectangle" stroke="#21380B" fill="#112F39" x="147.05" y="15.99" width="6" height="19.59"></rect>
            <polygon id="Path" stroke="#FFFFFF" stroke-width="1.42" fill="#FFFFFF" points="103.71 14.34 103.71 14.7 103.71 15.99 110.98 15.99 110.98 14.7 110.98 14.34"></polygon>
            <polygon id="Path" stroke="#FFFFFF" stroke-width="1.42" fill="#FFFFFF" points="126.06 14.34 126.06 14.7 126.06 15.99 133.04 15.99 133.04 14.7 133.04 14.34"></polygon>
            <polygon id="Path" stroke="#FFFFFF" stroke-width="1.42" fill="#FFFFFF" points="146.72 14.34 146.72 14.7 146.72 15.99 153.29 15.99 153.29 14.7 153.29 14.34"></polygon>
        </g>
    </g>
</svg>