<?xml version="1.0" encoding="utf-8"?>
<!-- Generator: Adobe Illustrator 24.0.0, SVG Export Plug-In . SVG Version: 6.00 Build 0)  -->
<svg version="1.1" id="Layer_1" xmlns="http://www.w3.org/2000/svg" xmlns:xlink="http://www.w3.org/1999/xlink" x="0px" y="0px"
	 viewBox="0 0 171 50" style="enable-background:new 0 0 171 50;" xml:space="preserve">
<style type="text/css">
	.st0{fill:#F0B645;}
	.st1{fill:#F2F6F4;stroke:#F2F6F4;}
	.st2{fill:#FFFFFF;stroke:#FFFFFF;stroke-width:1.42;}
	.st3{fill:#63707E;}
</style>
<title>Artboard</title>
<desc>Created with Sketch.</desc>
<g id="Artboard">
	<g id="Shout_logo_V2" transform="translate(5.000000, 6.000000)">
		<path id="Path" class="st0" d="M83.57,6.83c6.59,0,12.07,2.14,14,8.34c-0.74-7.78-7-13.85-14.56-13.85c-8.07,0-16,6.91-15,15.4
			c0.13,1.07,0.44,2.45,0.56,3.61C70.1,12.5,75.37,6.83,83.57,6.83z"/>
		<path id="Path_1_" class="st0" d="M82.7,29.75c-6.59,0-12.06-1.82-14-8c0.74,7.78,7,13.86,14.55,13.86c8.08,0,16-6.92,15-15.41
			c-0.13-1.07-0.44-2.45-0.56-3.61C96.14,24.4,90.87,29.75,82.7,29.75z"/>
		<path id="Path_2_" class="st1" d="M26.79,20.44c-0.58-0.8-1.29-1.5-2.09-2.08c-0.89-0.64-1.88-1.13-2.93-1.44l-2.2-0.6l-3.19-0.84
			l-3-0.8l-1.52-0.4c-1.09-0.29-2.1-0.83-2.95-1.56c-0.77-0.74-1.19-1.79-1.13-2.86C7.75,9.1,7.96,8.34,8.38,7.7
			C8.77,7.13,9.29,6.66,9.9,6.33c0.63-0.34,1.3-0.58,2-0.72c0.71-0.14,1.44-0.21,2.16-0.21c1.81-0.07,3.6,0.4,5.14,1.36
			c1.44,1.12,2.28,2.85,2.25,4.68h6c0.05-1.63-0.29-3.25-1-4.72c-0.7-1.34-1.68-2.52-2.88-3.44c-1.25-0.95-2.66-1.65-4.17-2.08
			c-3.14-0.9-6.47-0.93-9.63-0.1c-1.43,0.38-2.79,1-4,1.85C4.6,3.77,3.62,4.84,2.91,6.09c-0.75,1.38-1.12,2.92-1.08,4.49
			c0,0.89,0.12,1.78,0.36,2.64c0.25,0.89,0.67,1.72,1.23,2.45c0.64,0.83,1.43,1.54,2.33,2.09c1.14,0.69,2.38,1.2,3.67,1.51
			c2.37,0.67,4.37,1.19,6,1.56c1.41,0.35,2.79,0.77,4.15,1.27c0.11,0.04,0.21,0.09,0.31,0.15h7.83C27.48,21.61,27.17,21,26.79,20.44
			L26.79,20.44z"/>
		<path id="Path_3_" class="st1" d="M22.44,26.32c0,0.65-0.13,1.3-0.38,1.9c-0.27,0.65-0.7,1.22-1.25,1.66
			c-0.67,0.53-1.43,0.93-2.24,1.17c-1.09,0.33-2.22,0.49-3.36,0.46c-1.14,0.01-2.28-0.13-3.39-0.41c-1-0.25-1.93-0.69-2.76-1.3
			c-0.8-0.59-1.44-1.38-1.87-2.28c-0.48-1.05-0.71-2.2-0.67-3.36h-6c-0.02,1.9,0.39,3.78,1.2,5.5c0.72,1.49,1.77,2.8,3.07,3.82
			c1.35,1.02,2.88,1.77,4.51,2.2c1.8,0.49,3.66,0.73,5.52,0.72c1.68,0,3.36-0.2,5-0.6c1.56-0.37,3.04-1.01,4.37-1.89
			c1.27-0.86,2.33-2.01,3.1-3.34c0.82-1.51,1.22-3.21,1.17-4.92c-0.01-0.58-0.07-1.17-0.19-1.74h-6.36
			C22.3,24.65,22.48,25.48,22.44,26.32L22.44,26.32z"/>
		<rect id="Rectangle" x="33.53" y="23.91" class="st1" width="6" height="11.68"/>
		<polygon id="Path_4_" class="st1" points="39.53,20.13 55.13,20.13 55.13,22.25 61.13,22.25 61.13,1.32 55.13,1.32 55.13,14.95 
			39.53,14.95 39.53,1.32 33.53,1.32 33.53,22.25 39.53,22.25 		"/>
		<rect id="Rectangle_1_" x="55.13" y="23.91" class="st1" width="6" height="11.68"/>
		<rect id="Rectangle_6_" x="126.55" y="1.32" class="st1" width="6" height="13.02"/>
		<rect id="Rectangle_7_" x="104.43" y="1.32" class="st1" width="6" height="13.02"/>
		<path id="Path_7_" class="st1" d="M126.57,21.28c0,1.16,0,2.32-0.16,3.51c-0.11,1.12-0.45,2.21-1,3.19
			c-0.57,0.98-1.4,1.79-2.4,2.33c-2.9,1.21-6.17,1.21-9.07,0c-0.99-0.54-1.81-1.34-2.37-2.32c-0.55-0.98-0.89-2.07-1-3.19
			c-0.12-1.17-0.17-2.34-0.17-3.51v-5.3h-6v7.26c-0.05,1.97,0.29,3.92,1,5.76c0.63,1.57,1.6,2.97,2.85,4.11
			c1.29,1.13,2.8,1.97,4.44,2.47c3.76,1.08,7.76,1.08,11.52,0c1.64-0.5,3.15-1.34,4.44-2.47c1.28-1.14,2.27-2.55,2.92-4.13
			c0.71-1.84,1.05-3.79,1-5.76v-7.24h-6V21.28z"/>
		<polygon id="Path_8_" class="st1" points="153.05,6.5 163.95,6.5 163.95,1.32 136.2,1.32 136.2,6.5 147.05,6.5 147.05,14.34 
			153.05,14.34 		"/>
		<rect id="Rectangle_8_" x="147.05" y="15.99" class="st1" width="6" height="19.59"/>
		<polygon id="Path_11_" class="st2" points="146.72,14.34 146.72,14.7 146.72,15.99 153.29,15.99 153.29,14.7 153.29,14.34 		"/>
		<path class="st3" d="M21.59,24.43c0,0-0.85-1.82-4.7-2.68h11.17c0,0,0.57,1.31,0.75,2.68H21.59z"/>
		<rect x="33.03" y="21.61" class="st3" width="7.01" height="3.27"/>
		<rect x="54.63" y="21.34" class="st3" width="7.01" height="3.27"/>
	</g>
</g>
<polygon class="st3" points="108.92,19.63 115.93,19.63 115.9,22.71 108.9,22.71 "/>
<polygon class="st3" points="138.04,19.63 131.03,19.63 131.07,22.71 138.07,22.71 "/>
<polyline class="st3" points="151.54,19.63 151.54,22.71 158.55,22.71 158.55,19.63 "/>
</svg>
